<svg width="78" height="90" viewBox="0 0 78 90" fill="none" xmlns="http://www.w3.org/2000/svg">
<path d="M7.42953 81.0032L0.421875 0H77.4219L70.4049 80.9904L38.8751 90L7.42953 81.0032Z" fill="#E44F26"/>
<path d="M38.9218 83.1151L64.4013 75.8347L70.3954 6.62474H38.9218V83.1151Z" fill="#F1662A"/>
<path d="M38.9218 36.665H26.1664L25.287 26.4918H38.9218V16.5565H14.7521L14.9829 19.2243L17.3499 46.6004H38.9218V36.665Z" fill="#EBEBEB"/>
<path d="M38.9219 62.4663L38.8782 62.4791L28.1437 59.4931L27.4576 51.5699H17.7804L19.1308 67.1656L38.8782 72.8163L38.9219 72.8034V62.4663Z" fill="#EBEBEB"/>
<path d="M38.8876 36.6653V46.6007H50.7572L49.6408 59.4867L38.8876 62.476V72.8132L58.6506 67.1657L58.7941 65.4878L61.0582 39.3332L61.2952 36.6653H38.8876Z" fill="white"/>
<path d="M38.8876 16.5565V26.4918H62.1716L62.3649 24.2611L62.8047 19.2243L63.0354 16.5565H38.8876Z" fill="white"/>
</svg>
